<?xml version="1.0" standalone="no"?>
<!DOCTYPE svg PUBLIC "-//W3C//DTD SVG 20010904//EN"
 "http://www.w3.org/TR/2001/REC-SVG-20010904/DTD/svg10.dtd">
<svg version="1.0" xmlns="http://www.w3.org/2000/svg"
 width="492.000000pt" height="492.000000pt" viewBox="0 0 492.000000 492.000000"
 preserveAspectRatio="xMidYMid meet">
<metadata>
Created by potrace 1.14, written by Peter Selinger 2001-2017
</metadata>
<g transform="translate(0.000000,492.000000) scale(0.100000,-0.100000)"
fill="#000000" stroke="none">
<path d="M0 2460 l0 -2460 2460 0 2460 0 0 2460 0 2460 -2460 0 -2460 0 0
-2460z m3535 1289 c108 -22 244 -87 330 -156 120 -98 207 -270 222 -439 l6
-74 -245 0 -246 0 -7 47 c-13 91 -65 160 -145 196 -64 29 -216 35 -296 12
-106 -31 -184 -137 -184 -250 0 -85 63 -177 147 -211 19 -8 123 -35 231 -60
242 -55 274 -65 387 -122 72 -37 107 -64 175 -132 171 -171 239 -358 227 -615
-10 -200 -57 -313 -182 -441 -164 -166 -356 -235 -655 -235 -303 0 -491 69
-660 240 -123 124 -173 235 -187 414 l-6 77 240 0 240 0 12 -61 c21 -105 70
-162 189 -217 52 -25 68 -27 177 -27 111 0 125 2 181 28 116 54 169 139 168
267 -1 83 -21 142 -69 198 -48 57 -102 80 -301 127 -104 24 -220 55 -259 68
-275 95 -435 251 -511 502 -26 83 -26 312 0 404 51 184 155 311 321 391 55 27
131 56 170 65 154 37 364 39 530 4z m-2385 -1004 l0 -1005 500 0 500 0 0 -225
0 -225 -745 0 -745 0 0 1230 0 1230 245 0 245 0 0 -1005z"/>
</g>
</svg>
