<?xml version="1.0" standalone="no"?>
<!DOCTYPE svg PUBLIC "-//W3C//DTD SVG 20010904//EN"
 "http://www.w3.org/TR/2001/REC-SVG-20010904/DTD/svg10.dtd">
<svg version="1.0" xmlns="http://www.w3.org/2000/svg"
 width="256.000000pt" height="256.000000pt" viewBox="0 0 256.000000 256.000000"
 preserveAspectRatio="xMidYMid meet">
<metadata>
Created by potrace 1.14, written by Peter Selinger 2001-2017
</metadata>
<g transform="translate(0.000000,256.000000) scale(0.100000,-0.100000)"
fill="#000000" stroke="none">
<path d="M152 2542 c-54 -22 -109 -74 -133 -127 -16 -38 -18 -103 -18 -1135 0
-1229 -6 -1128 74 -1211 70 -73 11 -70 1231 -67 1214 3 1110 -3 1187 74 71 71
68 14 65 1230 -3 1214 3 1110 -74 1187 -71 70 -14 67 -1214 66 -984 0 -1079
-2 -1118 -17z m705 -306 c4 -4 8 -280 9 -614 1 -669 1 -665 65 -766 76 -121
192 -178 360 -178 163 1 290 75 356 207 45 89 47 118 48 747 0 328 4 600 8
604 4 4 89 8 188 8 152 1 182 -1 188 -14 9 -19 6 -1137 -3 -1210 -9 -76 -31
-168 -52 -215 -10 -22 -19 -46 -20 -54 -6 -31 -118 -183 -170 -230 -104 -95
-256 -168 -401 -192 -65 -10 -210 -13 -263 -5 -94 14 -121 20 -175 38 -271 93
-445 298 -501 593 -14 78 -17 171 -18 680 -1 325 1 595 5 600 8 12 365 13 376
1z"/>
</g>
</svg>
